<svg width="36" height="36" viewBox="0 0 36 36" fill="none" xmlns="http://www.w3.org/2000/svg">
<g id="group">
<path id="Vector" d="M21 36V26.25C21 25.4543 21.3161 24.6913 21.8787 24.1287C22.4413 23.5661 23.2044 23.25 24 23.25V11.25C24 11.25 21.75 9.74999 18 9.74999C14.25 9.74999 12 11.25 12 11.25V23.25C12.7956 23.25 13.5587 23.5661 14.1213 24.1287C14.6839 24.6913 15 25.4543 15 26.25V36M5.25 36V26.25C5.25 25.4543 4.93393 24.6913 4.37132 24.1287C3.80871 23.5661 3.04565 23.25 2.25 23.25V11.25C2.25 11.25 4.5 9.74999 8.25 9.74999M30.75 36V26.25C30.75 25.4543 31.0661 24.6913 31.6287 24.1287C32.1913 23.5661 32.9544 23.25 33.75 23.25V11.25C33.75 11.25 31.5 9.74999 27.75 9.74999M17.775 6.74999C17.775 6.74999 15.375 5.24999 15.375 3.37499C15.375 2.67959 15.6512 2.01268 16.143 1.52096C16.6347 1.02924 17.3016 0.752991 17.997 0.752991C18.6924 0.752991 19.3593 1.02924 19.851 1.52096C20.3428 2.01268 20.619 2.67959 20.619 3.37499C20.619 5.24999 18.225 6.74999 18.225 6.74999H17.775ZM8.025 6.74999C8.025 6.74999 5.625 5.24999 5.625 3.37499C5.625 3.03066 5.69282 2.68971 5.82459 2.37159C5.95636 2.05348 6.14949 1.76443 6.39297 1.52096C6.63644 1.27748 6.92549 1.08435 7.2436 0.952579C7.56172 0.820811 7.90267 0.752991 8.247 0.752991C8.59133 0.752991 8.93228 0.820811 9.2504 0.952579C9.56851 1.08435 9.85756 1.27748 10.101 1.52096C10.3445 1.76443 10.5376 2.05348 10.6694 2.37159C10.8012 2.68971 10.869 3.03066 10.869 3.37499C10.869 5.24999 8.475 6.74999 8.475 6.74999H8.025ZM27.525 6.74999C27.525 6.74999 25.125 5.24999 25.125 3.37499C25.125 2.67959 25.4012 2.01268 25.893 1.52096C26.3847 1.02924 27.0516 0.752991 27.747 0.752991C28.4424 0.752991 29.1093 1.02924 29.601 1.52096C30.0928 2.01268 30.369 2.67959 30.369 3.37499C30.369 5.24999 27.975 6.74999 27.975 6.74999H27.525Z" stroke="black"/>
</g>
</svg>
